<?xml version="1.0" encoding="UTF-8" standalone="no"?>
<svg
   version="1.1"
   width="1500"
   height="1500"
   viewBox="0 0 500 500"
   xml:space="preserve"
   id="svg63"
   sodipodi:docname="B.svg"
   inkscape:version="1.1.2 (1:1.1+202202050950+0a00cf5339)"
   xmlns:inkscape="http://www.inkscape.org/namespaces/inkscape"
   xmlns:sodipodi="http://sodipodi.sourceforge.net/DTD/sodipodi-0.dtd"
   xmlns="http://www.w3.org/2000/svg"
   xmlns:svg="http://www.w3.org/2000/svg"><sodipodi:namedview
   id="namedview65"
   pagecolor="#ffffff"
   bordercolor="#666666"
   borderopacity="1.0"
   inkscape:pageshadow="2"
   inkscape:pageopacity="0.0"
   inkscape:pagecheckerboard="0"
   showgrid="false"
   inkscape:zoom="0.556"
   inkscape:cx="750.89928"
   inkscape:cy="750"
   inkscape:window-width="1920"
   inkscape:window-height="1043"
   inkscape:window-x="0"
   inkscape:window-y="102"
   inkscape:window-maximized="1"
   inkscape:current-layer="svg63" />
<desc
   id="desc54">Created with Fabric.js 4.6.0</desc>
<defs
   id="defs56">
</defs>
<g
   transform="matrix(1 0 0 1 244.75 324.3)"
   style=""
   id="f3NPWDNbdkCZiJe4ji_O3">
		<g
   aria-label="B"
   id="text60"
   style="font-style:italic;font-weight:700;font-size:450px;line-height:1;font-family:'Open Sans';white-space:pre;opacity:1;fill:#dc143c;stroke:#000000;stroke-width:27"><path
     d="m 73.38504,-120.7298 q 19.995117,0 32.08008,-8.78907 12.08496,-8.78906 15.60058,-25.92773 3.2959,-16.91895 -5.27343,-25.70801 -8.56934,-9.00879 -28.564456,-9.00879 H 40.426056 l -13.842774,69.4336 z M 47.457306,22.75164 q 25.488281,0 40.429687,-10.766601 15.161137,-10.7666018 19.555667,-32.519531 4.1748,-21.313477 -6.37207,-31.860352 Q 90.523712,-63.161446 64.815704,-63.161446 H 15.157501 L -2.2008972,22.75164 Z M 149.84988,-95.241524 q 25.70801,7.910157 36.25489,29.223633 10.7666,21.313477 4.61425,52.294922 -9.66796,47.460937 -46.3623,70.751953 Q 107.66238,80.32 42.183868,80.32 H -98.221405 l 65.698242,-328.05176 H 94.47879 q 68.33496,0 94.70215,20.6543 26.58691,20.6543 17.57812,66.13769 -4.83398,23.9502 -19.55566,40.86914 -14.50195,16.69922 -37.35352,24.829106 z"
     id="path147" /></g>
</g>
</svg>
